<?xml version="1.0" encoding="UTF-8" standalone="no"?>
<svg xmlns:dc="http://purl.org/dc/elements/1.1/" xmlns:cc="http://creativecommons.org/ns#" xmlns:rdf="http://www.w3.org/1999/02/22-rdf-syntax-ns#" xmlns:svg="http://www.w3.org/2000/svg" xmlns="http://www.w3.org/2000/svg" xmlns:sodipodi="http://sodipodi.sourceforge.net/DTD/sodipodi-0.dtd" xmlns:inkscape="http://www.inkscape.org/namespaces/inkscape" width="325" height="100" viewBox="0 0 85.989569 26.458334" version="1.1" id="svg8" inkscape:version="1.0.2 (e86c870879, 2021-01-15, custom)" sodipodi:docname="logo-vedion.svg">
  <defs id="defs2">
    <clipPath clipPathUnits="userSpaceOnUse" id="clipPath26">
      <path d="M 0,595.28 H 841.89 V 0 H 0 Z" id="path24"/>
    </clipPath>
    <clipPath clipPathUnits="userSpaceOnUse" id="clipPath62">
      <path d="m 278.894,297.086 c 0,-19.682 15.956,-35.638 35.638,-35.638 v 0 c 19.682,0 35.638,15.956 35.638,35.638 v 0 c 0,19.682 -15.956,35.639 -35.638,35.639 v 0 c -19.682,0 -35.638,-15.957 -35.638,-35.639 m 46.867,13.49 2.741,5.333 h 8.489 l -11.23,-21.861 -11.229,-21.862 -11.23,21.862 -11.23,21.861 h 8.49 l 2.74,-5.333 11.23,-21.861 z" id="path60"/>
    </clipPath>
    <linearGradient x1="0" y1="0" x2="1" y2="0" gradientUnits="userSpaceOnUse" gradientTransform="matrix(0,-54.071854,-54.071854,0,314.53198,320.21353)" spreadMethod="pad" id="linearGradient72">
      <stop style="stop-opacity:1;stop-color:#00c6fc" offset="0" id="stop68"/>
      <stop style="stop-opacity:1;stop-color:#0177ff" offset="1" id="stop70"/>
    </linearGradient>
  </defs>
  <sodipodi:namedview id="base" pagecolor="#ffffff" bordercolor="#666666" borderopacity="1.0" inkscape:pageopacity="0.0" inkscape:pageshadow="2" inkscape:zoom="1.979899" inkscape:cx="339.28867" inkscape:cy="108.01229" inkscape:document-units="mm" inkscape:current-layer="layer1" inkscape:document-rotation="0" showgrid="false" units="px" inkscape:window-width="1534" inkscape:window-height="864" inkscape:window-x="2024" inkscape:window-y="1" inkscape:window-maximized="0"/>
  <metadata id="metadata5">
    <rdf:RDF>
      <cc:Work rdf:about="">
        <dc:format>image/svg+xml</dc:format>
        <dc:type rdf:resource="http://purl.org/dc/dcmitype/StillImage"/>
        <dc:title/>
      </cc:Work>
    </rdf:RDF>
  </metadata>
  <g inkscape:label="Warstwa 1" inkscape:groupmode="layer" id="layer1">
    <g id="g18" inkscape:label="vedion logo_gotowe_wycięte V" transform="matrix(0.33408393,0,0,-0.33408393,-91.851087,112.48099)">
      <g id="g20">
        <g id="g22" clip-path="url(#clipPath26)">
          <g id="g28" transform="translate(381.5493,282.571)">
            <path d="m 0,0 c 0.45,-1.852 0.6,-2.602 0.95,-2.901 0.35,-0.3 0.651,-0.401 1.051,-0.401 0.4,0 0.7,0.101 1.05,0.401 0.35,0.299 0.5,1.049 0.95,2.901 l 6.353,26.809 h 3.801 L 7.603,-0.801 c -0.75,-3.101 -0.951,-3.651 -1.951,-4.601 -1,-0.952 -2.351,-1.401 -3.651,-1.401 -1.301,0 -2.651,0.449 -3.651,1.401 -1.001,0.95 -1.201,1.5 -1.951,4.601 l -6.553,27.61 h 3.802 z" style="fill:#003973;fill-opacity:1;fill-rule:nonzero;stroke:none" id="path30"/>
          </g>
          <g id="g32" transform="translate(419.21,295.0251)">
            <path d="m 0,0 v -3.501 l -11.804,-0.051 v -7.652 c 0,-2.051 0,-3.151 0.85,-3.801 0.6,-0.451 1.451,-0.451 3.302,-0.451 H 3.001 v -3.501 H -7.652 c -2.202,0 -4.202,0 -5.853,1.4 -2,1.751 -2,3.953 -2,6.353 V 6.603 c 0,2.4 0,4.601 2,6.352 1.651,1.4 3.651,1.4 5.853,1.4 H 3.001 V 10.854 H -7.652 c -1.851,0 -2.702,0 -3.302,-0.45 -0.85,-0.651 -0.85,-1.751 -0.85,-3.801 V -0.05 Z" style="fill:#003973;fill-opacity:1;fill-rule:nonzero;stroke:none" id="path34"/>
          </g>
          <g id="g36" transform="translate(436.2637,305.4289)">
            <path d="m 0,0 c -0.85,-0.65 -0.85,-1.75 -0.85,-3.801 v -17.807 c 0,-2.051 0,-3.151 0.85,-3.801 0.601,-0.451 1.451,-0.451 2.301,-0.451 2.802,0 6.703,0 9.053,2.352 2.401,2.4 2.401,6.002 2.401,10.803 0,4.802 0,8.403 -2.401,10.804 C 9.004,0.45 5.103,0.45 2.301,0.45 1.451,0.45 0.601,0.45 0,0 m 14.056,0.5 c 3.401,-3.401 3.401,-8.103 3.401,-13.205 0,-5.102 0,-9.803 -3.401,-13.205 -3.452,-3.451 -8.503,-3.451 -11.755,-3.451 -1.2,0 -3.201,0 -4.852,1.401 -2.001,1.751 -2.001,3.952 -2.001,6.352 v 17.807 c 0,2.401 0,4.601 2.001,6.352 1.651,1.4 3.652,1.4 4.852,1.4 3.252,0 8.303,0 11.755,-3.451" style="fill:#003973;fill-opacity:1;fill-rule:nonzero;stroke:none" id="path38"/>
          </g>
          <g id="g40" transform="translate(480.9258,282.4704)">
            <path d="m 0,0 c 1.2,-2.001 3.552,-3.201 6.353,-3.201 2.8,0 5.151,1.2 6.352,3.201 1.3,2.151 1.3,5.151 1.3,10.254 0,5.101 0,8.103 -1.3,10.253 -1.201,2.001 -3.552,3.201 -6.352,3.201 C 3.552,23.708 1.2,22.508 0,20.507 -1.301,18.357 -1.301,15.355 -1.301,10.254 -1.301,5.151 -1.301,2.151 0,0 m -3.201,22.258 c 1.85,3.051 5.351,4.952 9.554,4.952 4.201,0 7.703,-1.901 9.553,-4.952 1.801,-2.951 1.801,-6.102 1.801,-12.004 0,-5.902 0,-9.054 -1.801,-12.005 -1.85,-3.051 -5.352,-4.951 -9.553,-4.951 -4.203,0 -7.704,1.9 -9.554,4.951 -1.801,2.951 -1.801,6.103 -1.801,12.005 0,5.902 0,9.053 1.801,12.004" style="fill:#003973;fill-opacity:1;fill-rule:nonzero;stroke:none" id="path42"/>
          </g>
          <g id="g44" transform="translate(525.9883,306.4792)">
            <path d="M 0,0 C 2.602,-2.951 2.602,-6.552 2.602,-11.055 V -30.411 H -1.1 v 19.356 c 0,4.053 0,6.853 -1.701,8.754 -1.2,1.351 -3.001,2.001 -4.951,2.001 -1.951,0 -3.752,-0.65 -4.952,-2.001 -1.7,-1.901 -1.7,-4.701 -1.7,-8.754 v -19.356 h -3.702 v 19.356 c 0,4.503 0,8.104 2.601,11.055 1.801,2.051 4.651,3.201 7.753,3.201 C -4.651,3.201 -1.8,2.051 0,0" style="fill:#003973;fill-opacity:1;fill-rule:nonzero;stroke:none" id="path46"/>
          </g>
          <g id="g48" transform="translate(458.1343,310.8425)">
            <path d="M 0,0 4.577,-10.577 9.171,-0.006 C 6.205,0.867 2.966,0.869 0,0" style="fill:#00c6fc;fill-opacity:1;fill-rule:nonzero;stroke:none" id="path50"/>
          </g>
          <g id="g52" transform="translate(462.9717,295.3694)">
            <path d="M 0,0 V -19.123 H 3.702 V 8.519 Z" style="fill:#003973;fill-opacity:1;fill-rule:nonzero;stroke:none" id="path54"/>
          </g>
        </g>
      </g>
      <g id="g56">
        <g id="g58" clip-path="url(#clipPath62)">
          <g id="g64">
            <g id="g66">
              <path d="m 278.894,297.086 c 0,-19.682 15.956,-35.638 35.638,-35.638 v 0 c 19.682,0 35.638,15.956 35.638,35.638 v 0 c 0,19.682 -15.956,35.639 -35.638,35.639 v 0 c -19.682,0 -35.638,-15.957 -35.638,-35.639 m 46.867,13.49 2.741,5.333 h 8.489 l -11.23,-21.861 -11.229,-21.862 -11.23,21.862 -11.23,21.861 h 8.49 l 2.74,-5.333 11.23,-21.861 z" style="fill:url(#linearGradient72);stroke:none" id="path74"/>
            </g>
          </g>
        </g>
      </g>
    </g>
  </g>
</svg>